<?xml version="1.0" standalone="no"?>
<!DOCTYPE svg PUBLIC "-//W3C//DTD SVG 20010904//EN"
 "http://www.w3.org/TR/2001/REC-SVG-20010904/DTD/svg10.dtd">
<svg version="1.0" xmlns="http://www.w3.org/2000/svg"
 width="518.000000pt" height="518.000000pt" viewBox="0 0 518.000000 518.000000"
 preserveAspectRatio="xMidYMid meet">
<metadata>
Created by potrace 1.14, written by Peter Selinger 2001-2017
</metadata>
<g transform="translate(0.000000,518.000000) scale(0.100000,-0.100000)"
fill="#000000" stroke="none">
<path d="M883 4644 c-47 -16 -89 -62 -102 -111 -12 -44 -15 -1852 -3 -1854 4
-1 818 -2 1809 -3 1797 -1 1802 -1 1805 19 2 11 3 428 2 926 l-1 906 -22 39
c-12 21 -39 50 -59 64 l-37 25 -1677 1 c-1344 0 -1685 -2 -1715 -12z"/>
<path d="M772 2430 c4 -163 11 -190 57 -228 54 -44 -18 -43 1757 -43 1862 0
1715 -5 1770 67 34 44 46 159 35 340 l-1 22 -1811 -1 -1811 0 4 -157z"/>
<path d="M2284 2056 c-3 -8 -4 -65 -2 -127 l3 -114 298 -3 c163 -1 298 1 298
5 4 23 5 230 1 241 -6 19 -591 17 -598 -2z"/>
<path d="M2031 1714 c-35 -15 -56 -63 -44 -101 20 -60 18 -60 608 -59 l537 1
29 32 c15 18 27 38 25 45 -3 7 -7 25 -10 39 -11 52 -25 53 -594 54 -372 0
-532 -3 -551 -11z"/>
<path d="M2046 1333 c-1 -1 -304 -3 -674 -4 l-672 -1 -34 -56 c-18 -32 -49
-85 -67 -120 -19 -34 -44 -79 -56 -100 -12 -20 -29 -50 -37 -67 -8 -16 -29
-55 -46 -85 -18 -30 -54 -93 -80 -140 -27 -47 -53 -97 -59 -112 -6 -16 -15
-28 -20 -28 -9 0 -7 -36 5 -88 2 -12 15 -26 27 -31 17 -6 4415 -9 4464 -3 15
2 30 30 37 65 4 25 -32 106 -60 135 -8 7 -19 22 -24 33 -6 10 -72 108 -148
216 -75 109 -159 231 -186 271 -27 39 -58 81 -68 92 -18 19 -35 20 -996 20
-537 0 -1051 2 -1140 3 -90 1 -165 1 -166 0z"/>
</g>
</svg>
