<?xml version="1.0" standalone="no"?>
<!DOCTYPE svg PUBLIC "-//W3C//DTD SVG 20010904//EN"
 "http://www.w3.org/TR/2001/REC-SVG-20010904/DTD/svg10.dtd">
<svg version="1.0" xmlns="http://www.w3.org/2000/svg"
 width="1102.000000pt" height="1102.000000pt" viewBox="0 0 1102.000000 1102.000000"
 preserveAspectRatio="xMidYMid meet">
<metadata>
Created by potrace 1.14, written by Peter Selinger 2001-2017
</metadata>
<g transform="translate(0.000000,1102.000000) scale(0.100000,-0.100000)"
fill="#000000" stroke="none">
<path d="M3907 9039 c-42 -7 -110 -51 -136 -88 -52 -73 -55 -90 -57 -246 l-2
-150 -183 -71 c-101 -39 -207 -83 -236 -98 -29 -14 -56 -26 -61 -26 -5 0 -51
39 -102 88 -118 112 -154 133 -234 139 -116 10 -186 -29 -351 -198 -60 -61
-143 -144 -184 -183 -274 -264 -311 -322 -281 -448 19 -78 51 -127 143 -213
l83 -78 -57 -113 c-61 -124 -125 -281 -135 -332 -4 -18 -9 -34 -13 -36 -3 -2
-40 -7 -81 -10 -41 -4 -102 -9 -135 -12 -151 -13 -239 -71 -262 -174 -2 -8 -4
-214 -4 -456 -1 -317 2 -452 11 -478 31 -95 156 -146 367 -149 71 -1 73 -2 83
-32 6 -16 29 -82 51 -145 22 -63 60 -155 84 -205 66 -136 66 -128 -13 -212
-81 -86 -124 -164 -130 -239 -8 -94 27 -153 158 -271 19 -17 53 -51 76 -75 22
-23 63 -64 90 -89 27 -26 68 -66 91 -90 68 -72 176 -174 214 -202 50 -37 133
-61 188 -53 24 3 67 17 95 31 51 25 73 42 152 117 l40 38 105 -55 c57 -30 116
-55 130 -55 14 0 53 11 88 24 92 37 207 57 343 61 66 3 137 10 157 16 41 14
177 132 204 177 l17 30 -32 7 c-18 3 -60 12 -93 20 -163 38 -311 38 -490 -2
-38 -8 -75 -19 -81 -24 -6 -5 -32 -12 -57 -15 -39 -6 -56 -2 -104 22 -68 33
-176 94 -183 104 -3 4 -15 12 -27 18 -23 13 -9 24 -200 -161 l-82 -80 -48 39
c-115 94 -414 386 -447 437 -15 22 -16 29 -4 40 190 197 238 248 238 256 0 6
-14 34 -31 62 -50 85 -154 307 -192 409 -19 52 -45 138 -57 190 -29 128 -43
158 -77 167 -15 4 -103 8 -195 8 -93 0 -168 2 -169 5 0 3 -2 127 -5 275 -2
149 -5 290 -6 315 0 25 1 66 3 92 l4 48 45 0 c25 1 118 1 208 1 119 0 164 3
167 12 2 7 6 28 9 47 20 144 80 290 234 563 92 164 94 168 76 186 -90 88 -264
270 -264 277 0 5 114 126 254 268 l253 259 152 -151 152 -152 37 19 c20 10
102 52 182 93 156 80 233 110 431 168 70 20 135 45 145 55 17 17 19 37 19 218
l0 200 30 6 c17 3 62 5 100 4 39 -1 113 -1 165 -1 203 -1 357 -2 395 -5 l40
-3 3 -217 c2 -184 5 -217 17 -217 21 0 14 1 117 -26 51 -14 140 -40 197 -60
100 -33 147 -55 385 -178 l108 -56 148 153 148 152 251 -252 c141 -142 251
-260 251 -270 0 -21 -52 -78 -140 -153 -36 -30 -82 -72 -102 -94 l-38 -38 21
-30 c52 -72 213 -393 275 -548 19 -46 44 -126 57 -177 12 -51 24 -93 27 -93 3
0 19 13 37 30 17 16 59 52 92 80 33 28 65 59 71 69 19 36 -56 258 -166 488
l-62 133 84 87 c108 111 138 170 132 259 -6 93 -61 168 -293 399 -223 222
-331 320 -376 342 -143 70 -224 48 -379 -105 l-95 -94 -90 42 c-49 24 -161 68
-247 98 l-158 56 -1 110 c0 61 -2 123 -4 137 -14 106 -59 180 -133 216 l-53
26 -428 1 c-236 1 -444 -2 -464 -5z"/>
<path d="M7765 8251 c-151 -40 -273 -102 -412 -210 -226 -174 -372 -400 -422
-651 -6 -30 -14 -66 -17 -80 -14 -62 -12 -286 3 -343 l15 -58 -89 -86 c-48
-47 -324 -318 -613 -603 -289 -285 -583 -575 -655 -645 -71 -70 -348 -342
-613 -604 -266 -262 -574 -564 -684 -672 l-199 -196 -157 0 c-214 1 -294 -18
-467 -105 -123 -62 -183 -105 -270 -193 -274 -273 -381 -695 -265 -1042 25
-74 97 -214 152 -298 127 -191 370 -350 606 -400 155 -32 340 -38 449 -14 32
7 60 13 63 14 73 15 263 103 325 150 82 62 178 152 216 201 8 11 35 44 58 74
51 64 91 142 120 230 46 139 54 191 56 351 l1 156 71 67 c39 37 111 108 160
158 124 129 328 326 395 384 31 27 231 226 445 443 689 700 827 836 938 930
48 40 587 574 732 724 l102 106 53 -9 c56 -9 321 -6 373 5 171 35 292 76 391
131 188 105 385 323 464 515 29 68 77 215 84 256 32 170 23 345 -26 518 -22
80 -59 175 -67 175 -11 0 -63 -49 -413 -395 -399 -394 -422 -412 -528 -402
-86 7 -152 47 -261 156 -119 119 -132 142 -135 247 -5 140 -22 118 380 520
199 198 371 373 384 388 l23 27 -63 28 c-123 55 -174 64 -413 67 -189 3 -230
1 -290 -15z m-3697 -4755 c115 -39 244 -168 282 -281 45 -135 19 -283 -70
-401 -169 -224 -462 -258 -656 -76 -73 68 -103 113 -125 184 -52 173 -43 267
39 383 121 172 348 253 530 191z"/>
<path d="M4169 7556 c-2 -2 -40 -6 -84 -10 -416 -30 -748 -275 -903 -667 -89
-224 -107 -457 -52 -677 20 -81 105 -260 171 -362 79 -123 257 -268 414 -339
39 -18 79 -36 90 -41 82 -38 271 -71 396 -71 409 2 781 221 973 572 32 58 83
187 91 229 24 132 27 170 22 301 -7 165 -11 197 -38 297 -70 264 -279 511
-553 653 -82 42 -123 58 -250 99 -35 11 -268 24 -277 16z m183 -280 c356 -84
604 -331 659 -656 10 -59 13 -249 4 -290 -3 -14 -7 -34 -9 -46 -16 -83 -76
-207 -145 -298 -188 -248 -487 -369 -793 -320 -154 24 -266 75 -397 180 -102
83 -158 152 -215 269 -52 108 -54 111 -75 201 -35 145 -2 395 70 520 140 245
348 402 594 449 79 15 224 11 307 -9z"/>
<path d="M8810 5968 c-59 -10 -86 -32 -137 -108 -23 -34 -44 -64 -45 -66 -2
-2 -23 4 -48 12 -57 20 -176 41 -275 50 -44 4 -93 8 -110 10 -16 1 -82 4 -145
5 -105 2 -121 0 -170 -23 -64 -29 -200 -156 -200 -187 0 -12 126 -29 340 -46
118 -9 185 -16 210 -20 14 -2 45 -7 70 -10 40 -5 210 -39 250 -50 8 -2 55 -17
104 -34 103 -35 87 -43 164 80 47 74 48 75 77 66 40 -13 94 -48 127 -81 22
-23 25 -32 18 -52 -8 -20 -53 -86 -101 -150 -8 -10 26 -57 161 -219 63 -75 90
-119 169 -271 l31 -61 53 8 c28 4 79 13 111 18 33 6 62 9 64 6 5 -5 32 -140
36 -180 2 -30 2 -30 -78 -47 -45 -9 -93 -17 -108 -18 -25 0 -28 -4 -29 -37 -1
-86 -14 -261 -23 -308 -3 -16 -19 -70 -36 -120 -33 -96 -34 -99 -49 -160 -7
-27 -7 -41 0 -44 6 -2 44 -26 85 -53 46 -31 72 -54 67 -61 -40 -70 -107 -167
-114 -167 -6 0 -33 15 -62 33 -101 63 -102 63 -139 35 -18 -14 -51 -42 -73
-62 -63 -58 -200 -147 -322 -209 -61 -31 -118 -64 -127 -72 -13 -13 -12 -25
10 -106 13 -51 23 -93 22 -94 -2 -2 -28 -5 -58 -8 -30 -3 -62 -7 -70 -10 -8
-3 -34 -8 -57 -11 -42 -6 -43 -5 -58 30 -8 20 -15 56 -15 79 0 23 -6 47 -12
53 -7 6 -44 13 -83 17 -234 21 -280 31 -568 125 -25 8 -29 5 -61 -44 -18 -29
-37 -62 -40 -74 -4 -12 -12 -22 -17 -22 -29 0 -189 102 -189 120 0 5 20 38 45
74 25 37 45 69 45 72 0 10 -58 89 -87 119 -71 72 -149 188 -210 312 -36 73
-68 135 -72 137 -9 6 -176 -20 -191 -29 -8 -5 -25 72 -36 161 -4 31 -2 54 4
58 5 3 43 13 83 21 40 9 78 20 85 26 14 12 24 67 39 217 6 61 18 136 28 177
62 250 77 326 63 318 -64 -38 -181 -128 -239 -183 -80 -75 -102 -122 -113
-240 -4 -36 -7 -66 -8 -67 -1 -1 -32 -9 -68 -16 -151 -32 -198 -107 -161 -261
8 -33 29 -135 47 -226 36 -181 47 -213 88 -243 30 -23 113 -31 172 -17 18 4
40 3 49 -1 8 -5 42 -53 75 -106 33 -54 74 -112 91 -129 l30 -30 -20 -30 c-34
-49 -60 -113 -61 -148 -3 -75 23 -101 258 -258 139 -94 229 -148 249 -150 67
-7 114 20 176 102 l35 46 162 -36 c89 -19 166 -40 172 -46 5 -5 17 -37 26 -70
25 -98 76 -134 184 -128 48 3 188 30 415 81 111 25 155 62 149 128 -1 11 -5
52 -9 90 -7 70 -7 71 21 85 32 17 153 100 207 143 40 32 49 30 145 -30 77 -49
99 -45 174 30 70 69 254 309 288 374 49 96 26 168 -78 243 -70 51 -68 43 -31
210 6 25 13 65 15 90 7 65 10 70 43 70 40 0 118 27 152 53 40 29 61 79 60 145
0 31 -2 66 -5 77 -2 11 -18 90 -35 175 -41 203 -55 243 -96 278 -50 45 -115
51 -223 21 -23 -6 -45 -10 -47 -7 -3 3 -41 61 -84 129 l-79 124 21 35 c48 81
77 145 77 172 0 71 -46 123 -179 201 -39 23 -122 77 -184 119 -61 43 -123 79
-137 81 -14 2 -45 0 -70 -5z"/>
<path d="M8108 5215 c-1 -1 -21 -5 -43 -8 -56 -8 -177 -53 -237 -88 -168 -99
-296 -253 -352 -422 -61 -182 -51 -354 31 -542 48 -109 77 -150 165 -234 98
-93 144 -120 293 -177 77 -29 298 -40 390 -20 146 33 276 105 380 210 65 65
90 100 128 176 67 135 98 256 98 375 -1 106 -20 173 -94 325 -61 124 -118 187
-248 273 -106 70 -175 101 -267 120 -61 13 -234 21 -244 12z m223 -289 c138
-45 265 -152 321 -272 45 -96 55 -183 33 -288 -19 -91 -58 -158 -136 -237
-118 -118 -214 -156 -374 -146 -211 12 -361 121 -435 315 -102 269 51 570 325
638 76 19 190 15 266 -10z"/>
</g>
</svg>
